<?xml version="1.0" encoding="utf-8"?>
<!-- Generator: Adobe Illustrator 21.0.0, SVG Export Plug-In . SVG Version: 6.00 Build 0)  -->
<svg version="1.1" id="Capa_1" xmlns="http://www.w3.org/2000/svg" xmlns:xlink="http://www.w3.org/1999/xlink" x="0px" y="0px"
	 viewBox="0 0 1024 1024" style="enable-background:new 0 0 1024 1024;" xml:space="preserve">
<style type="text/css">
	.st0{display:none;fill:#FA5C5C;}
	.st1{fill:#F2F2F2;}
</style>
<circle class="st0" cx="512" cy="512" r="512"/>
<path class="st1" d="M138.8,63.7C94.8,89.9,8,189.5,7.1,215.7v43.4c0,54.8,51.3,103.1,97.8,103.1c56,0,102.5-46.3,102.5-101.4
	c0,55,45,101.4,101,101.4s99.4-46.3,99.4-101.4c0,55,47.9,101.4,103.7,101.4h1c56,0,103.7-46.3,103.7-101.4
	c0,55,43.6,101.4,99.4,101.4c56,0,101-46.3,101-101.4c0,55,46.5,101.4,102.5,101.4c46.5,0,97.8-48.1,97.8-103.1v-43.4
	c-0.8-26-87.5-125.8-131.7-152c-136.8-4.7-231.9-5.7-373.3-5.5S177.8,60.3,138.8,63.7z M407.1,336c-5.5,9.7-12,17.9-19.7,25.2
	c-21.1,20.7-50.1,33.3-81.8,33.3c0,0,0,0-0.2,0c-31.9,0-60.9-12.8-82-33.5c-7.7-7.5-13.4-15.6-18.7-24.8
	c-5.3,9.3-12.6,17.4-20.3,24.8c-21.1,20.7-50.1,33.3-82,33.3c0,0,0,0-0.2,0c-3.7,0-7.9-1-11-2.2c-4.5,46.7-6.3,91.5-7.1,124v0.2
	c0,16.6-0.2,30.2-0.2,49.1c0.8,98.2-9.7,318.3,43.4,372.3c82.2,19.1,233.3,27.8,384.9,28c151.6,0,302.9-8.9,384.9-28
	c53-54,42.4-274.1,43.4-372.3c0-18.9-0.2-32.5-0.2-49.1v-0.2c-0.6-32.5-2.6-77.3-7.1-124c-3.2,1.2-7.3,2.2-11,2.2
	c-31.9,0-60.9-12.8-82-33.5c-7.7-7.5-15-15.6-20.3-24.8c-5.3,9.3-11.2,17.4-18.7,24.8c-21.1,20.7-50.1,33.5-82,33.5c0,0,0,0-0.2,0
	c-31.9,0-60.7-12.8-81.8-33.5c-7.5-7.3-14-15.6-19.3-24.8l-0.2-0.6c-5.5,9.7-12,17.9-19.5,25.2c-21.1,20.7-50.1,33.5-82,33.5
	c0,0,0,0-0.2,0c-1.2,0-2.2,0-3.4,0c-1.2,0-2.2,0-3.4,0c0,0,0,0-0.2,0c-31.9,0-60.9-12.8-82-33.5c-7.5-7.3-14-15.6-19.1-24.8
	L407.1,336z M322.8,445c33.5,0.2,63.1,0,99.8,40.2c29-3,59.2-4.5,89.3-4.5c30.2,0,60.5,1.4,89.3,4.5c37.1-40.2,66.6-40,100-40.2
	c15.8,0,78.9,0,122.8,123.4l47.1,169.4c35.1,126-11.2,129.2-68.8,129.2c-85.2-3.2-132.5-65.1-132.5-127.2
	c-47.3,7.7-102.5,11.6-157.7,11.6s-110.4-3.9-157.7-11.6c0,62.1-47.3,124-132.7,127.4C164,867,117.7,864,152.8,738l47.3-169.4
	C243.9,445,307,445,322.8,445L322.8,445z M512,542c0,0.2-89.9,82.6-106.1,112l58.8-2.4v51.3c0,2.4,23.7,1.4,47.3,0.4
	c23.7,1.2,47.3,2,47.3-0.4v-51.3l58.8,2.4C602,624.8,512,542.2,512,542z"/>
</svg>
